<svg width="74" height="74" viewBox="0 0 74 74" fill="none" xmlns="http://www.w3.org/2000/svg">
<path d="M49.3671 60.1158L26.8341 37L49.3671 13.8842C49.7705 13.4712 49.9964 12.9168 49.9964 12.3395C49.9964 11.7621 49.7705 11.2077 49.3671 10.7947C49.1712 10.5947 48.9373 10.4359 48.6792 10.3274C48.4211 10.2189 48.1439 10.1631 47.864 10.1631C47.584 10.1631 47.3069 10.2189 47.0488 10.3274C46.7907 10.4359 46.5568 10.5947 46.3609 10.7947L22.3849 35.3859C21.9639 35.8177 21.7283 36.3969 21.7283 37C21.7283 37.6031 21.9639 38.1823 22.3849 38.6141L46.3562 63.2053C46.5523 63.4067 46.7868 63.5667 47.0457 63.676C47.3047 63.7853 47.5829 63.8416 47.864 63.8416C48.1451 63.8416 48.4233 63.7853 48.6823 63.676C48.9412 63.5667 49.1757 63.4067 49.3717 63.2053C49.7751 62.7923 50.001 62.2378 50.001 61.6605C50.001 61.0832 49.7751 60.5288 49.3717 60.1158H49.3671Z" fill="#F7DF9C"/>
</svg>
