<svg width="74" height="74" viewBox="0 0 74 74" fill="none" xmlns="http://www.w3.org/2000/svg">
<path d="M24.6329 13.8842L47.1659 37L24.6329 60.1158C24.2295 60.5288 24.0036 61.0832 24.0036 61.6605C24.0036 62.2379 24.2295 62.7923 24.6329 63.2053C24.8288 63.4053 25.0627 63.5641 25.3208 63.6726C25.5789 63.7811 25.8561 63.8369 26.136 63.8369C26.416 63.8369 26.6931 63.7811 26.9512 63.6726C27.2093 63.5641 27.4432 63.4053 27.6391 63.2053L51.6151 38.6141C52.0361 38.1823 52.2717 37.6031 52.2717 37C52.2717 36.3969 52.0361 35.8177 51.6151 35.3859L27.6438 10.7947C27.4477 10.5933 27.2132 10.4333 26.9543 10.324C26.6953 10.2147 26.4171 10.1584 26.136 10.1584C25.8549 10.1584 25.5767 10.2147 25.3177 10.324C25.0588 10.4333 24.8243 10.5933 24.6283 10.7947C24.2249 11.2077 23.999 11.7622 23.999 12.3395C23.999 12.9168 24.2249 13.4712 24.6283 13.8842H24.6329Z" fill="#F7DF9C"/>
</svg>
